<?xml version="1.0" encoding="UTF-8"?>
<svg width="448px" height="448px" viewBox="0 0 448 448" version="1.1" xmlns="http://www.w3.org/2000/svg" xmlns:xlink="http://www.w3.org/1999/xlink">
    <!-- Generator: Sketch 47.1 (45422) - http://www.bohemiancoding.com/sketch -->
    <title>behance-square</title>
    <desc>Created with Sketch.</desc>
    <defs></defs>
    <g id="Page-1" stroke="none" stroke-width="1" fill="none" fill-rule="evenodd">
        <g id="behance-square" fill-rule="nonzero" fill="#ffffff">
            <path d="M186.5,261 C186.5,280.3 172.5,286.4 155.3,286.4 L110.2,286.4 L110.2,233.5 L156.2,233.5 C174.8,233.6 186.5,241.3 186.5,261 L186.5,261 Z M178.8,178.7 C178.8,161 165.1,156.8 149.9,156.8 L110.3,156.8 L110.3,201.6 L153,201.6 C168.1,201.6 178.8,195 178.8,178.7 L178.8,178.7 Z M311.1,201.9 C292.8,201.9 280.6,213.3 279.4,231.6 L341.6,231.6 C339.9,213.1 330.3,201.9 311.1,201.9 Z M448,48 L448,400 C448,426.5 426.5,448 400,448 L48,448 C21.5,448 0,426.5 0,400 L0,48 C0,21.5 21.5,0 48,0 L400,0 C426.5,0 448,21.5 448,48 Z M271.7,153 L349.5,153 L349.5,134.1 L271.7,134.1 L271.7,153 Z M228.7,263.3 C228.7,239.2 217.3,218.4 193.7,211.7 C210.9,203.5 219.9,194 219.9,174.7 C219.9,136.5 191.4,127.2 158.5,127.2 L68,127.2 L68,319.2 L161.1,319.2 C196,319 228.7,302.3 228.7,263.3 L228.7,263.3 Z M380,248.5 C380,207.4 355.9,173.1 312.4,173.1 C270,173.1 241.3,204.9 241.3,246.7 C241.3,290 268.6,319.7 312.4,319.7 C345.6,319.7 367.1,304.8 377.5,272.9 L343.8,272.9 C340.1,284.8 325.2,291 313.6,291 C291.2,291 279.5,277.9 279.5,255.7 L379.7,255.7 C379.8,253.4 380,250.9 380,248.5 Z" id="Shape"></path>
        </g>
    </g>
</svg>