<?xml version="1.0" encoding="UTF-8"?>
<svg width="558px" height="495px" viewBox="0 0 558 495" version="1.1" xmlns="http://www.w3.org/2000/svg" xmlns:xlink="http://www.w3.org/1999/xlink">
    <!-- Generator: Sketch 47.1 (45422) - http://www.bohemiancoding.com/sketch -->
    <title>bootstrap</title>
    <desc>Created with Sketch.</desc>
    <defs>
        <path d="M14.8843902,230.136471 L243.065903,92.9169686 C262.911757,80.9824429 295.088243,80.9824429 314.934097,92.9169686 L543.11561,230.136471 C562.961463,242.070996 562.961463,261.420686 543.11561,273.355211 L314.934097,410.574714 C295.088243,422.509239 262.911757,422.509239 243.065903,410.574714 L14.8843902,273.355211 C-4.96146338,261.420686 -4.96146338,242.070996 14.8843902,230.136471 Z" id="path-1"></path>
        <path d="M14.8843902,146.170396 L243.065903,8.95089429 C262.911757,-2.98363143 295.088243,-2.98363143 314.934097,8.95089429 L543.11561,146.170396 C562.961463,158.104922 562.961463,177.454611 543.11561,189.389137 L314.934097,326.608639 C295.088243,338.543165 262.911757,338.543165 243.065903,326.608639 L14.8843902,189.389137 C-4.96146338,177.454611 -4.96146338,158.104922 14.8843902,146.170396 Z" id="path-2"></path>
    </defs>
    <g id="icons" stroke="none" stroke-width="1" fill="none" fill-rule="evenodd">
        <g id="Tech" transform="translate(0.000000, -146.000000)">
            <g id="bootstrap" transform="translate(0.000000, 146.000000)">
                <path d="M14.8843902,303.610715 L243.065903,164.979947 C262.911757,152.922678 295.088243,152.922678 314.934097,164.979947 L543.11561,303.610715 C562.961463,315.667984 562.961463,335.21668 543.11561,347.273949 L314.934097,485.904717 C295.088243,497.961987 262.911757,497.961987 243.065903,485.904717 L14.8843902,347.273949 C-4.96146338,335.21668 -4.96146338,315.667984 14.8843902,303.610715 Z" id="Rectangle-2" fill="#000000"></path>
                <g id="Rectangle-2">
                    <use fill="#FFFFFF" fill-rule="evenodd" xlink:href="#path-1"></use>
                    <path stroke="#000000" stroke-width="16.4" d="M19.1102865,237.163689 C4.56323783,245.911719 4.56323783,257.579963 19.1102865,266.327993 L247.2918,403.547495 C264.537371,413.918312 293.462629,413.918312 310.7082,403.547495 L538.889713,266.327993 C553.436762,257.579963 553.436762,245.911719 538.889713,237.163689 L310.7082,99.9441871 C293.462629,89.57337 264.537371,89.57337 247.2918,99.9441871 L19.1102865,237.163689 Z"></path>
                </g>
                <g id="Rectangle-2">
                    <use fill="#000000" fill-rule="evenodd" xlink:href="#path-2"></use>
                    <path stroke="#000000" stroke-width="16.4" d="M19.1102865,153.197615 C4.56323783,161.945645 4.56323783,173.613888 19.1102865,182.361919 L247.2918,319.581421 C264.537371,329.952238 293.462629,329.952238 310.7082,319.581421 L538.889713,182.361919 C553.436762,173.613888 553.436762,161.945645 538.889713,153.197615 L310.7082,15.9781128 C293.462629,5.60729573 264.537371,5.60729573 247.2918,15.9781128 L19.1102865,153.197615 Z"></path>
                </g>
                <path d="M373.406012,198.804622 L310.135367,235.653501 L142.613273,138.088489 L206.116104,101.104385 C234.791057,84.4040677 270.895957,82.8489774 295.97203,97.4533036 C313.385969,107.595197 316.868756,124.498352 303.634163,135.586822 L304.562906,136.127723 C330.219443,124.565965 360.867976,125.377316 383.157818,138.358939 C412.645421,155.532545 409.046541,178.047548 373.406012,198.804622 Z M181.968775,136.668624 L235.7198,167.973267 L267.064891,149.71786 C291.792684,135.316371 295.391565,121.726234 277.281068,111.178666 C260.67978,101.510061 240.131332,102.794701 219.815069,114.626909 L181.968775,136.668624 Z M312.573318,212.732822 L351.812727,189.879756 C377.004893,175.207818 380.023309,161.550068 360.63579,150.258761 C341.248271,138.967453 317.681407,141.198669 290.980034,156.749572 L253.714204,178.453223 L312.573318,212.732822 Z" id="B" fill="#FFFFFF"></path>
            </g>
        </g>
    </g>
</svg>