<?xml version="1.0" encoding="UTF-8"?>
<svg width="512px" height="512px" viewBox="0 0 512 512" version="1.1" xmlns="http://www.w3.org/2000/svg" xmlns:xlink="http://www.w3.org/1999/xlink">
    <!-- Generator: Sketch 47.1 (45422) - http://www.bohemiancoding.com/sketch -->
    <title>codepen</title>
    <desc>Created with Sketch.</desc>
    <defs></defs>
    <g id="Page-1" stroke="none" stroke-width="1" fill="none" fill-rule="evenodd">
        <g id="codepen" fill-rule="nonzero" fill="#ffffff">
            <path d="M502.285,159.704 L268.285,3.704 C260.298,-1.211 251.774,-1.256 243.714,3.704 L9.714,159.704 C3.714,163.703 0,170.847 0,177.989 L0,333.988 C0,341.131 3.714,348.274 9.715,352.274 L243.715,508.296 C251.702,513.211 260.226,513.256 268.286,508.296 L502.286,352.274 C508.286,348.275 512.001,341.131 512.001,333.988 L512.001,177.989 C512,170.847 508.286,163.703 502.285,159.704 Z M278,63.131 L450.286,177.989 L373.429,229.418 L278,165.703 L278,63.131 Z M234,63.131 L234,165.703 L138.571,229.418 L61.714,177.989 L234,63.131 Z M44,219.132 L99.143,255.989 L44,292.846 L44,219.132 Z M234,448.847 L61.714,333.989 L138.571,282.56 L234,346.275 L234,448.847 Z M256,307.989 L178.285,255.989 L256,203.989 L333.715,255.989 L256,307.989 Z M278,448.847 L278,346.275 L373.429,282.56 L450.286,333.989 L278,448.847 Z M468,292.846 L412.857,255.989 L468,219.132 L468,292.846 Z" id="Shape"></path>
        </g>
    </g>
</svg>