<?xml version="1.0" encoding="UTF-8"?>
<svg width="496px" height="496px" viewBox="0 0 496 496" version="1.1" xmlns="http://www.w3.org/2000/svg" xmlns:xlink="http://www.w3.org/1999/xlink">
    <!-- Generator: Sketch 47.1 (45422) - http://www.bohemiancoding.com/sketch -->
    <title>dribbble</title>
    <desc>Created with Sketch.</desc>
    <defs></defs>
    <g id="Page-1" stroke="none" stroke-width="1" fill="none" fill-rule="evenodd">
        <g id="dribbble" fill-rule="nonzero" fill="#ffffff">
            <path d="M248,0 C111.252,0 0,111.252 0,248 C0,384.748 111.252,496 248,496 C384.748,496 496,384.748 496,248 C496,111.252 384.748,0 248,0 Z M411.97,114.366 C441.473,150.412 459.339,196.323 459.805,246.321 C452.821,244.844 382.787,230.639 312.303,239.503 C306.551,225.462 301.122,213.11 293.686,197.889 C372.007,165.912 407.504,120.407 411.97,114.366 L411.97,114.366 Z M388.421,89.87 C384.611,95.297 352.724,138.156 277.4,166.389 C242.688,102.613 204.215,50.221 198.36,42.381 C265.536,26.188 336.326,43.651 388.421,89.87 L388.421,89.87 Z M157.941,56.62 C163.526,64.279 201.379,116.736 236.478,179.129 C137.391,205.442 50.118,205.063 40.644,204.938 C54.38,139.205 98.678,84.573 157.941,56.62 Z M36.17,248.323 C36.17,246.157 36.213,244.001 36.278,241.85 C45.546,242.04 148.198,243.363 253.984,211.704 C260.048,223.572 265.841,235.619 271.158,247.653 C194.559,269.228 124.964,331.18 90.627,389.959 C56.794,352.405 36.17,302.73 36.17,248.323 Z M117.977,415.436 C140.104,370.203 200.155,311.814 285.556,282.68 C315.296,359.963 327.595,424.733 330.745,443.318 C262.633,472.331 180.73,464.371 117.977,415.436 L117.977,415.436 Z M366.357,423.925 C364.186,411.039 352.911,349.028 325.205,272.892 C391.585,262.266 449.905,279.66 457.152,281.947 C447.71,340.888 413.879,391.791 366.357,423.925 Z" id="Shape"></path>
        </g>
    </g>
</svg>