<?xml version="1.0" encoding="UTF-8"?>
<svg width="576px" height="512px" viewBox="0 0 576 512" version="1.1" xmlns="http://www.w3.org/2000/svg" xmlns:xlink="http://www.w3.org/1999/xlink">
    <!-- Generator: Sketch 47.1 (45422) - http://www.bohemiancoding.com/sketch -->
    <title>gem</title>
    <desc>Created with Sketch.</desc>
    <defs></defs>
    <g id="icons" stroke="none" stroke-width="1" fill="none" fill-rule="evenodd">
        <g id="Tech" transform="translate(-8241.000000, -66.000000)" fill-rule="nonzero" fill="#000000">
            <g id="gem" transform="translate(8241.000000, 66.000000)">
                <path d="M485.5,0 L576,160 L474.9,160 L405.7,0 L485.5,0 Z M357.5,0 L426.7,160 L149.3,160 L218.5,0 L357.5,0 Z M90.5,0 L170.3,0 L101.1,160 L0,160 L90.5,0 Z M0,192 L100.7,192 L223.7,443.7 C225.2,446.8 221,449.6 218.7,447 L0,192 Z M148.2,192 L427.8,192 L290.8,510.2 C289.8,512.6 286.3,512.6 285.3,510.2 L148.2,192 Z M352.3,443.7 L475.3,192 L576,192 L357.3,446.9 C355,449.6 350.8,446.8 352.3,443.7 L352.3,443.7 Z" id="Shape"></path>
            </g>
        </g>
    </g>
</svg>