<?xml version="1.0" encoding="UTF-8"?>
<svg width="398px" height="449px" viewBox="0 0 398 449" version="1.1" xmlns="http://www.w3.org/2000/svg" xmlns:xlink="http://www.w3.org/1999/xlink">
    <!-- Generator: Sketch 47.1 (45422) - http://www.bohemiancoding.com/sketch -->
    <title>node-js</title>
    <desc>Created with Sketch.</desc>
    <defs></defs>
    <g id="icons" stroke="none" stroke-width="1" fill="none" fill-rule="evenodd">
        <g id="Tech" transform="translate(-7775.000000, -614.000000)" fill-rule="nonzero" fill="#000000">
            <g id="node-js" transform="translate(7775.000000, 614.000000)">
                <path d="M199,449 C193,449 187,447.4 181.8,444.4 L126.9,412 C118.7,407.4 122.7,405.8 125.4,404.9 C136.3,401.1 138.5,400.2 150.2,393.6 C151.4,392.9 153,393.2 154.3,393.9 L196.4,418.9 C197.9,419.7 200.1,419.7 201.5,418.9 L365.7,324.1 C367.2,323.2 368.2,321.5 368.2,319.7 L368.2,130.2 C368.2,128.3 367.2,126.6 365.7,125.7 L201.5,31 C200,30.1 198,30.1 196.4,31 L32.4,125.7 C30.8,126.6 29.8,128.4 29.8,130.2 L29.8,319.7 C29.8,321.5 30.8,323.2 32.4,324.1 L77.4,350.1 C101.8,362.3 116.7,347.9 116.7,333.5 L116.7,146.4 C116.7,143.8 118.8,141.7 121.5,141.7 L142.3,141.7 C144.9,141.7 147.1,143.8 147.1,146.4 L147.1,333.5 C147.1,366.1 129.4,384.7 98.5,384.7 C89,384.7 81.5,384.7 60.7,374.4 L17.6,349.6 C7,343.5 0.4,332 0.4,319.7 L0.4,130.2 C0.4,117.9 7,106.4 17.6,100.3 L181.8,5.4 C192.2,-0.5 206,-0.5 216.3,5.4 L380.5,100.3 C391.1,106.4 397.7,117.9 397.7,130.2 L397.7,319.7 C397.7,332 391.1,343.5 380.5,349.6 L216.3,444.4 C211,447.4 205,449 199,449 Z M331.5,262.2 C331.5,226.7 307.5,217.3 257.1,210.6 C206.1,203.9 200.9,200.4 200.9,188.4 C200.9,178.5 205.3,165.4 243.1,165.4 C276.8,165.4 289.3,172.7 294.4,195.4 C294.8,197.5 296.8,199.1 299,199.1 L320.3,199.1 C321.6,199.1 322.9,198.5 323.8,197.6 C324.7,196.6 325.2,195.3 325.1,193.9 C321.8,154.7 295.8,136.5 243.2,136.5 C196.4,136.5 168.5,156.3 168.5,189.4 C168.5,225.3 196.3,235.3 241.2,239.7 C295,245 299.1,252.8 299.1,263.4 C299.1,281.7 284.4,289.6 249.8,289.6 C206.4,289.6 196.8,278.7 193.6,257.1 C193.2,254.8 191.3,253.1 188.9,253.1 L167.7,253.1 C165.1,253.1 163,255.2 163,257.8 C163,285.5 178.1,318.4 249.9,318.4 C301.7,318.5 331.5,298 331.5,262.2 L331.5,262.2 Z" id="Shape"></path>
            </g>
        </g>
    </g>
</svg>