<?xml version="1.0" encoding="UTF-8"?>
<svg width="640px" height="392px" viewBox="0 0 640 392" version="1.1" xmlns="http://www.w3.org/2000/svg" xmlns:xlink="http://www.w3.org/1999/xlink">
    <!-- Generator: Sketch 47.1 (45422) - http://www.bohemiancoding.com/sketch -->
    <title>node</title>
    <desc>Created with Sketch.</desc>
    <defs></defs>
    <g id="icons" stroke="none" stroke-width="1" fill="none" fill-rule="evenodd">
        <g id="Tech" transform="translate(-4395.000000, -97.000000)" fill-rule="nonzero" fill="#000000">
            <g id="node" transform="translate(4395.000000, 97.000000)">
                <path d="M316.3,392 C314.2,392 312.1,391.4 310.2,390.4 L291,379 C288.1,377.4 289.5,376.8 290.5,376.5 C294.3,375.2 295.1,374.9 299.2,372.5 C299.6,372.3 300.2,372.4 300.6,372.6 L315.4,381.4 C315.9,381.7 316.7,381.7 317.2,381.4 L375,348 C375.5,347.7 375.9,347.1 375.9,346.4 L375.9,279.7 C375.9,279 375.6,278.4 375,278.1 L317.2,244.8 C316.7,244.5 316,244.5 315.4,244.8 L257.6,278.1 C257,278.4 256.7,279.1 256.7,279.7 L256.7,346.4 C256.7,347 257.1,347.6 257.6,347.9 L273.4,357 C282,361.3 287.3,356.2 287.3,351.2 L287.3,285.3 C287.3,284.4 288,283.6 289,283.6 L296.3,283.6 C297.2,283.6 298,284.3 298,285.3 L298,351.2 C298,362.7 291.8,369.2 280.9,369.2 C277.6,369.2 274.9,369.2 267.6,365.6 L252.4,356.9 C248.7,354.7 246.3,350.7 246.3,346.4 L246.3,279.7 C246.3,275.4 248.6,271.3 252.4,269.2 L310.2,235.8 C313.9,233.7 318.7,233.7 322.3,235.8 L380.1,269.2 C383.8,271.4 386.2,275.4 386.2,279.7 L386.2,346.4 C386.2,350.7 383.9,354.8 380.1,356.9 L322.3,390.3 C320.6,391.4 318.5,392 316.3,392 L316.3,392 Z M363,326.2 C363,313.7 354.6,310.4 336.8,308 C318.8,305.6 317,304.4 317,300.2 C317,296.7 318.5,292.1 331.8,292.1 C343.7,292.1 348.1,294.7 349.9,302.7 C350.1,303.5 350.7,304 351.5,304 L359,304 C359.5,304 359.9,303.8 360.2,303.5 C360.5,303.1 360.7,302.7 360.6,302.2 C359.4,288.4 350.3,282 331.8,282 C315.3,282 305.5,289 305.5,300.6 C305.5,313.3 315.3,316.7 331.1,318.3 C350,320.2 351.5,322.9 351.5,326.6 C351.5,333.1 346.3,335.8 334.1,335.8 C318.8,335.8 315.4,332 314.3,324.4 C314.2,323.6 313.5,323 312.6,323 L305.1,323 C304.2,323 303.4,323.7 303.4,324.7 C303.4,334.4 308.7,346 334,346 C352.5,346 363,338.8 363,326.2 L363,326.2 Z M417.5,276.1 C417.5,282.2 412.5,287.2 406.4,287.2 C400.3,287.2 395.3,282.2 395.3,276.1 C395.3,269.8 400.5,265 406.4,265 C412.4,264.9 417.5,269.8 417.5,276.1 Z M415.7,276.1 C415.7,270.9 411.5,266.8 406.3,266.8 C401.2,266.8 397,270.9 397,276.1 C397,281.3 401.2,285.5 406.3,285.5 C411.5,285.4 415.7,281.2 415.7,276.1 Z M411.2,282.3 L408.6,282.3 C408.5,281.7 408.1,278.5 408.1,278.4 C407.9,277.7 407.7,277.3 406.8,277.3 L404.6,277.3 L404.6,282.3 L402.2,282.3 L402.2,269.8 L406.5,269.8 C408,269.8 410.9,269.8 410.9,273.1 C410.9,275.4 409.4,275.9 408.5,276.2 C410.2,276.3 410.3,277.4 410.6,279 C410.7,280 410.9,281.7 411.2,282.3 L411.2,282.3 Z M408.4,273.5 C408.4,271.8 407.2,271.8 406.6,271.8 L404.6,271.8 L404.6,275.3 L406.5,275.3 C408.1,275.3 408.4,274.2 408.4,273.5 L408.4,273.5 Z M137.3,131 C137.3,128.3 135.9,125.9 133.6,124.6 L72.3,89.3 C71.3,88.7 70.1,88.4 68.9,88.3 L68.3,88.3 C67.1,88.3 66,88.7 64.9,89.3 L3.7,124.6 C1.4,125.9 0,128.4 0,131 L0.1,226 C0.1,227.3 0.8,228.5 1.9,229.2 C3,229.9 4.4,229.9 5.6,229.2 L42,208.3 C44.3,206.9 45.7,204.5 45.7,201.9 L45.7,157.5 C45.7,154.9 47.1,152.4 49.4,151.1 L64.9,142.2 C66.1,141.5 67.3,141.2 68.6,141.2 C69.9,141.2 71.2,141.5 72.3,142.2 L87.8,151.1 C90.1,152.4 91.5,154.9 91.5,157.5 L91.5,201.9 C91.5,204.5 92.9,207 95.2,208.3 L131.6,229.2 C132.7,229.9 134.2,229.9 135.3,229.2 C136.4,228.6 137.1,227.3 137.1,226 L137.3,131 Z M472.5,27.3 L472.5,203.7 C472.5,206.3 471.1,208.8 468.8,210.1 L407.5,245.5 C405.2,246.8 402.4,246.8 400.1,245.5 L338.8,210.1 C336.5,208.8 335.1,206.3 335.1,203.7 L335.1,132.9 C335.1,130.3 336.5,127.8 338.8,126.5 L400.1,91.1 C402.4,89.8 405.2,89.8 407.5,91.1 L422.8,99.9 C424.5,100.9 426.7,99.6 426.7,97.7 L426.7,3.7 C426.7,0.9 429.7,-0.9 432.2,0.5 L468.7,20.9 C471,22.1 472.5,24.6 472.5,27.3 Z M426.5,156.2 C426.5,155.5 426.1,154.9 425.6,154.6 L404.6,142.4 C404,142.1 403.3,142.1 402.7,142.4 L381.7,154.6 C381.1,154.9 380.8,155.5 380.8,156.2 L380.8,180.5 C380.8,181.2 381.2,181.8 381.7,182.1 L402.7,194.2 C403.3,194.5 404,194.5 404.5,194.2 L425.5,182.1 C426.1,181.8 426.4,181.2 426.4,180.5 L426.4,156.2 L426.5,156.2 Z M636.3,155.5 C638.6,154.2 640,151.7 640,149.1 L640,132 C640,129.4 638.6,126.9 636.3,125.6 L575.4,90.2 C573.1,88.9 570.3,88.9 568,90.2 L506.7,125.6 C504.4,126.9 503,129.4 503,132 L503,202.8 C503,205.5 504.4,207.9 506.7,209.2 L567.6,243.9 C569.8,245.2 572.6,245.2 574.9,243.9 L611.7,223.4 C614.2,222 614.2,218.4 611.7,217 L550,181.6 C548.8,180.9 548.1,179.7 548.1,178.4 L548.1,156.2 C548.1,154.9 548.8,153.7 550,153 L569.2,141.9 C570.3,141.2 571.8,141.2 572.9,141.9 L592.1,153 C593.2,153.7 594,154.9 594,156.2 L594,173.6 C594,176.4 597.1,178.2 599.6,176.8 L636.3,155.5 L636.3,155.5 Z M559,159 C558.6,159.3 558.3,159.7 558.3,160.2 L558.3,173.8 C558.3,174.3 558.6,174.8 559,175 L570.8,181.8 C571.2,182.1 571.8,182.1 572.2,181.8 L584,175 C584.4,174.7 584.7,174.3 584.7,173.8 L584.7,160.2 C584.7,159.7 584.4,159.2 584,159 L572.2,152.2 C571.8,151.9 571.2,151.9 570.8,152.2 L559,159 Z M304.8,202.5 L304.8,132.1 C304.8,129.5 303.2,127 300.9,125.7 L239.8,90.5 C237.7,89.3 234.8,89.1 232.4,90.5 L171.3,125.7 C169,127 167.4,129.4 167.4,132.1 L167.4,202.5 C167.4,205.3 169.3,207.7 171.4,208.9 L232.6,244.1 C235,245.5 237.8,245.4 240,244.1 L301,208.9 C302.8,207.9 304.1,206.2 304.6,204.2 C304.7,203.7 304.8,203.1 304.8,202.5 Z M230.5,77.6 L229.7,78.1 L230.8,78.1 L230.5,77.6 L230.5,77.6 Z M306.7,207.8 L306.3,207.1 L306.3,208 L306.7,207.8 Z" id="Shape"></path>
            </g>
        </g>
    </g>
</svg>