<?xml version="1.0" encoding="UTF-8"?>
<svg width="512px" height="449px" viewBox="0 0 512 449" version="1.1" xmlns="http://www.w3.org/2000/svg" xmlns:xlink="http://www.w3.org/1999/xlink">
    <!-- Generator: Sketch 47.1 (45422) - http://www.bohemiancoding.com/sketch -->
    <title>react</title>
    <desc>Created with Sketch.</desc>
    <defs></defs>
    <g id="icons" stroke="none" stroke-width="1" fill="none" fill-rule="evenodd">
        <g id="Tech" transform="translate(-2529.000000, -97.000000)" fill-rule="nonzero" fill="#000000">
            <g id="react" transform="translate(2529.000000, 97.000000)">
                <path d="M418.2,145.2 C412.8,143.4 407.4,141.7 402,140.1 C402.9,136.4 403.7,132.7 404.5,129 C416.8,69.4 408.7,21.5 381.4,5.7 C355.1,-9.4 312.2,6.3 268.8,44.1 C264.5,47.8 260.3,51.7 256.3,55.6 C253.6,53 250.8,50.4 248,47.9 C202.5,7.5 156.9,-9.5 129.6,6.4 C103.4,21.6 95.6,66.7 106.6,123.1 C107.7,128.7 108.9,134.2 110.3,139.8 C103.9,141.6 97.6,143.6 91.7,145.7 C38.3,164.2 0,193.4 0,223.6 C0,254.8 40.8,286.1 96.3,305.1 C100.8,306.6 105.3,308.1 109.9,309.4 C108.4,315.4 107.1,321.3 105.9,327.4 C95.4,382.9 103.6,426.9 129.8,442 C156.8,457.6 202.2,441.6 246.4,402.9 C249.9,399.8 253.4,396.6 256.9,393.2 C261.3,397.5 265.9,401.6 270.5,405.6 C313.3,442.4 355.6,457.3 381.7,442.2 C408.7,426.6 417.5,379.3 406.1,321.7 C405.2,317.3 404.2,312.8 403.1,308.2 C406.3,307.3 409.4,306.3 412.5,305.3 C470.2,286.2 512,255.3 512,223.6 C512,193.3 472.6,163.9 418.2,145.2 Z M282.9,60.3 C320.1,27.9 354.8,15.2 370.6,24.3 C387.5,34 394,73.2 383.4,124.7 C382.7,128.1 382,131.4 381.1,134.7 C358.9,129.7 336.4,126.1 313.8,124.1 C300.8,105.5 286.6,87.7 271.2,71 C275.1,67.3 278.9,63.8 282.9,60.3 L282.9,60.3 Z M152.9,249.4 C157.5,258.2 162.2,266.9 167.2,275.5 C172.3,284.2 177.5,292.9 183,301.4 C167.4,299.7 151.9,297.2 136.6,293.9 C141,279.5 146.5,264.6 152.9,249.4 L152.9,249.4 Z M152.9,198.8 C146.6,183.9 141.3,169.3 136.9,155.2 C151.3,152 166.6,149.4 182.5,147.4 C177.2,155.7 172,164.2 167.1,172.8 C162.2,181.3 157.4,190 152.9,198.8 Z M164.3,224.1 C170.9,210.3 178.1,196.8 185.7,183.5 C193.3,170.2 201.5,157.3 210.1,144.6 C225.1,143.5 240.4,142.9 256,142.9 C271.6,142.9 287,143.5 301.9,144.6 C310.4,157.2 318.5,170.1 326.2,183.3 C333.9,196.5 341.1,210 347.9,223.7 C341.2,237.5 334,251.1 326.3,264.5 C318.7,277.8 310.6,290.7 302.1,303.5 C287.2,304.6 271.7,305.1 256,305.1 C240.3,305.1 225.1,304.6 210.4,303.7 C201.7,291 193.5,278 185.8,264.7 C178.1,251.4 171,237.9 164.3,224.1 Z M344.9,275.3 C350,266.5 354.8,257.6 359.5,248.6 C365.9,263.1 371.5,277.8 376.4,292.9 C360.9,296.4 345.2,299.1 329.4,300.9 C334.8,292.5 339.9,283.9 344.9,275.3 Z M359.3,198.8 C354.6,190 349.8,181.2 344.8,172.6 C339.9,164.1 334.8,155.7 329.5,147.4 C345.6,149.4 361,152.1 375.4,155.4 C370.8,170.2 365.4,184.6 359.3,198.8 L359.3,198.8 Z M256.2,86.3 C266.7,97.7 276.6,109.7 285.8,122.1 C266,121.2 246.1,121.2 226.3,122.1 C236.1,109.2 246.2,97.2 256.2,86.3 Z M140.2,25 C157,15.2 194.3,29.2 233.6,64 C236.1,66.2 238.6,68.6 241.2,71 C225.7,87.7 211.4,105.5 198.3,124.1 C175.7,126.1 153.3,129.6 131.1,134.5 C129.8,129.4 128.7,124.2 127.6,119 C118.2,70.6 124.4,34.1 140.2,25 L140.2,25 Z M115.7,288.6 C111.5,287.4 107.4,286.1 103.3,284.7 C82,278 57.8,267.4 40.3,253.5 C30.2,246.5 23.4,235.7 21.5,223.6 C21.5,205.3 53.1,181.9 98.7,166 C104.4,164 110.2,162.2 116,160.5 C122.8,182.2 131,203.5 140.5,224.1 C130.9,245 122.6,266.6 115.7,288.6 L115.7,288.6 Z M232.3,386.6 C215.8,401.7 196.7,413.7 175.9,421.9 C164.8,427.2 152,427.7 140.6,423.2 C124.7,414 118.1,378.7 127.1,331.2 C128.2,325.6 129.4,320 130.8,314.5 C153.2,319.3 175.8,322.6 198.7,324.3 C211.9,343 226.4,360.9 241.9,377.7 C238.7,380.8 235.5,383.8 232.3,386.6 Z M256.8,362.3 C246.6,351.3 236.4,339.1 226.5,326 C236.1,326.4 246,326.6 256,326.6 C266.3,326.6 276.4,326.4 286.4,325.9 C277.2,338.6 267.3,350.7 256.8,362.3 L256.8,362.3 Z M387.5,392.3 C386.6,404.5 380.6,415.9 371,423.6 C355.1,432.8 321.2,420.8 284.6,389.4 C280.4,385.8 276.2,381.9 271.9,377.9 C287.2,361 301.3,343.1 314.1,324.3 C337,322.4 359.8,318.9 382.3,313.8 C383.3,317.9 384.2,322 385,326 C389.9,347.6 390.7,370.1 387.5,392.3 L387.5,392.3 Z M405.7,284.8 C402.9,285.7 400.1,286.6 397.2,287.4 C390.2,265.6 381.6,244.3 371.7,223.6 C381.3,203.2 389.4,182.2 396.2,160.7 C401.4,162.2 406.4,163.8 411.2,165.4 C457.8,181.4 490.5,205.2 490.5,223.4 C490.5,243 455.6,268.3 405.7,284.8 Z M256,178.2 C281.3,178.2 301.8,198.7 301.8,224 C301.8,249.3 281.3,269.8 256,269.8 C230.7,269.8 210.2,249.3 210.2,224 C210.2,198.7 230.7,178.2 256,178.2 L256,178.2 Z" id="Shape"></path>
            </g>
        </g>
    </g>
</svg>