<?xml version="1.0" encoding="UTF-8"?>
<svg width="230px" height="230px" viewBox="0 0 230 230" version="1.1" xmlns="http://www.w3.org/2000/svg" xmlns:xlink="http://www.w3.org/1999/xlink">
    <!-- Generator: Sketch 47.1 (45422) - http://www.bohemiancoding.com/sketch -->
    <title>AM logo</title>
    <desc>Created with Sketch.</desc>
    <defs></defs>
    <g id="Symbols" stroke="none" stroke-width="1" fill="none" fill-rule="evenodd">
        <g id="AM-logo-white" fill="black">
            <g id="AM-logo">
                <path d="M69.8671807,48.5648225 L57.5,11.1290323 L34.3145161,11.1290323 L11.1290323,11.1290323 L11.1290323,218.870968 L57.5,218.870968 L57.5,151.495205 L79.7580645,218.870968 L102.943548,218.870968 L126.129032,218.870968 L148.387097,151.495205 L148.387097,218.870968 L194.758065,218.870968 L194.758065,11.1290323 L171.572581,11.1290323 L148.387097,11.1290323 L130.640341,64.8489417 L69.8671807,48.5648225 Z M87.2667472,101.233781 L116.070658,108.951765 L102.943548,148.687881 L87.2667472,101.233781 Z M0,0 L81.6129032,0 L89.0322581,20.4032258 L127.983871,31.5322581 L139.112903,0 L230,0 L230,230 L0,230 L0,0 Z" id="Combined-Shape"></path>
            </g>
        </g>
    </g>
</svg>